<?xml version="1.0" encoding="UTF-8"?>
<svg id="Layer_2" data-name="Layer 2" xmlns="http://www.w3.org/2000/svg" viewBox="0 0 15.98 16.82">
  <defs>
    <style>
      .cls-1 {
        fill: #fff;
      }

      .cls-1, .cls-2 {
        fill-rule: evenodd;
      }

      .cls-2 {
        fill: #af3d03;
      }
    </style>
  </defs>
  <g id="svg2">
    <g id="layer1">
      <g id="g4707-6-2">
        <g>
          <path id="path4632-0-0" class="cls-2" d="M0,10.58s2.21,1.05,4.28,2.68c2.07,1.64,3.06,3.56,3.06,3.56h.66V4.81s-1.68-1.4-3.71-2.72C2,.63,0,0,0,0v10.58Z"/>
          <path id="path4638-8-8" class="cls-1" d="M7.93,15.95s-.63-1.5-3.16-3.56-3.72-2.48-3.72-2.48V1.28s2.07,1.03,3.85,2.28c1.78,1.25,3.09,2.75,3.09,2.75l-.06,9.65Z"/>
          <path id="path4632-8-4-4" class="cls-2" d="M15.98,10.58s-2.21,1.05-4.28,2.68c-2.07,1.64-3.06,3.56-3.06,3.56h-.66V4.81s1.68-1.4,3.71-2.72C13.98.63,15.98,0,15.98,0v10.58Z"/>
        </g>
      </g>
    </g>
  </g>
</svg>