<?xml version="1.0" encoding="UTF-8"?>
<svg id="Layer_2" data-name="Layer 2" xmlns="http://www.w3.org/2000/svg" viewBox="0 0 10.55 17.51">
  <defs>
    <style>
      .cls-1 {
        fill: #fff;
      }

      .cls-1, .cls-2 {
        fill-rule: evenodd;
      }

      .cls-2 {
        fill: #af3d03;
      }
    </style>
  </defs>
  <g id="svg2">
    <g id="layer1">
      <g id="g4707-6-2">
        <g>
          <path id="path4636-9-5" class="cls-2" d="M5.28,17.51s-.25-2.65-2.09-5.06c-1.84-2.4-3.18-3.22-3.18-3.22V0s1.84.72,3.21,2.12c1.37,1.4,2.06,3.37,2.06,3.37v12.02Z"/>
          <path id="path4636-2-7-6" class="cls-2" d="M5.28,17.51s.25-2.65,2.09-5.06c1.84-2.4,3.18-3.22,3.18-3.22V0s-1.84.72-3.21,2.12c-1.37,1.4-2.06,3.37-2.06,3.37v12.02Z"/>
          <path id="path4671-1-2" class="cls-1" d="M5.28,14.32s.83-1.53,2.02-2.69,2.43-1.55,2.43-1.55V1.53s-.83.13-2.05,1.5-2.41,3.96-2.41,3.96v7.33Z"/>
        </g>
      </g>
    </g>
  </g>
</svg>